<?xml version="1.0" standalone="no"?>
<!DOCTYPE svg PUBLIC "-//W3C//DTD SVG 20010904//EN"
 "http://www.w3.org/TR/2001/REC-SVG-20010904/DTD/svg10.dtd">
<svg version="1.0" xmlns="http://www.w3.org/2000/svg"
 width="1000.000000pt" height="1000.000000pt" viewBox="0 0 1000.000000 1000.000000"
 preserveAspectRatio="xMidYMid meet">
<metadata>
Created by potrace 1.14, written by Peter Selinger 2001-2017
</metadata>
<g transform="translate(0.000000,1000.000000) scale(0.100000,-0.100000)"
fill="#000000" stroke="none">
<path d="M0 5000 l0 -5000 5000 0 5000 0 0 5000 0 5000 -5000 0 -5000 0 0
-5000z m5227 1318 l-2 -3213 -23 -83 c-33 -126 -84 -217 -140 -254 -26 -17
-136 -18 -2109 -18 l-2083 0 0 658 c0 861 16 1114 91 1483 76 380 235 785 362
924 87 96 134 118 375 179 170 43 219 60 258 87 103 70 209 203 298 373 l46
89 0 -1297 0 -1296 673 0 674 0 6 417 c7 410 16 584 38 692 23 113 128 315
315 605 l89 138 3 -926 2 -926 335 0 334 0 4 2333 c2 2139 4 2339 19 2422 23
121 63 256 97 330 29 62 320 494 334 495 4 0 6 -1446 4 -3212z m829 2997 c181
-264 215 -335 267 -557 l22 -93 2 -2357 3 -2358 705 0 705 0 0 108 c0 516 123
1099 314 1492 89 183 211 281 394 316 170 33 217 45 277 74 135 65 213 168
338 450 38 85 71 157 73 159 2 2 4 -851 4 -1897 l0 -1902 -1630 0 -1630 0 0
3392 c0 1992 4 3388 9 3383 5 -6 71 -100 147 -210z m-816 -7710 l0 -505 -2130
0 -2130 0 0 505 0 505 2130 0 2130 0 0 -505z"/>
<path d="M1656 4936 c-129 -48 -261 -302 -309 -596 -19 -112 -32 -328 -23
-364 l6 -26 260 0 260 0 0 475 0 475 -39 20 c-54 27 -108 33 -155 16z"/>
<path d="M8462 5013 c-97 -47 -202 -246 -253 -478 -21 -94 -38 -408 -25 -459
l6 -26 225 0 225 0 0 476 0 475 -35 15 c-45 18 -102 18 -143 -3z"/>
</g>
</svg>
